HIERARCHY
ROOT Hips
{
	OFFSET -3.958830 18.904000 13.208200
	CHANNELS 6 Xposition Yposition Zposition Zrotation Yrotation Xrotation 
	JOINT LHipJoint
	{
		OFFSET 0.000000 0.000000 0.000000
		CHANNELS 3 Zrotation Yrotation Xrotation
		JOINT LeftUpLeg
		{
			OFFSET 1.800000 -1.400000 0.085000
			CHANNELS 3 Zrotation Yrotation Xrotation
			JOINT LeftLeg
			{
				OFFSET 2.215000 -6.000000 0.000000
				CHANNELS 3 Zrotation Yrotation Xrotation
				JOINT LeftFoot
				{
					OFFSET 2.500000 -6.900000 0.000000
					CHANNELS 3 Zrotation Yrotation Xrotation
					JOINT LeftToeBase
					{
						OFFSET 0.200000 -0.500000 1.950000
						CHANNELS 3 Zrotation Yrotation Xrotation
						End Site
						{
							OFFSET 0.000000 0.000000 0.000000
						}
					}
				}
			}
		}
	}
	JOINT RHipJoint
	{
		OFFSET 0.000000 0.000000 0.000000
		CHANNELS 3 Zrotation Yrotation Xrotation
		JOINT RightUpLeg
		{
			OFFSET -1.800000 -1.400000 0.085000
			CHANNELS 3 Zrotation Yrotation Xrotation
			JOINT RightLeg
			{
				OFFSET -2.215000 -6.000000 0.000000
				CHANNELS 3 Zrotation Yrotation Xrotation
				JOINT RightFoot
				{
					OFFSET -2.500000 -6.900000 0.000000
					CHANNELS 3 Zrotation Yrotation Xrotation
					JOINT RightToeBase
					{
						OFFSET -0.200000 -0.500000 1.950000
						CHANNELS 3 Zrotation Yrotation Xrotation
						End Site
						{
							OFFSET 0.000000 0.000000 0.000000
						}
					}
				}
			}
		}
	}
	JOINT LowerBack
	{
		OFFSET 0.000000 0.000000 0.000000
		CHANNELS 3 Zrotation Yrotation Xrotation
		JOINT Spine
		{
			OFFSET -0.087000 1.940000 -0.288900
			CHANNELS 3 Zrotation Yrotation Xrotation
			JOINT Spine1
			{
				OFFSET 0.000000 1.950000 0.060000
				CHANNELS 3 Zrotation Yrotation Xrotation
				JOINT Neck
				{
					OFFSET 0.000000 0.000000 0.000000
					CHANNELS 3 Zrotation Yrotation Xrotation
					JOINT Neck1
					{
						OFFSET 0.000000 1.600000 0.340000
						CHANNELS 3 Zrotation Yrotation Xrotation
						JOINT Head
						{
							OFFSET 0.000000 1.667000 -0.240000
							CHANNELS 3 Zrotation Yrotation Xrotation
							End Site
							{
								OFFSET 0.000000 0.000000 0.000000
							}
						}
					}
				}
				JOINT LeftShoulder
				{
					OFFSET 0.000000 0.000000 0.000000
					CHANNELS 3 Zrotation Yrotation Xrotation
					JOINT LeftArm
					{
						OFFSET 2.700000 1.550000 -0.730000
						CHANNELS 3 Zrotation Yrotation Xrotation
						JOINT LeftForeArm
						{
							OFFSET 5.450000 0.000000 0.000000
							CHANNELS 3 Zrotation Yrotation Xrotation
							JOINT LeftHand
							{
								OFFSET 3.450000 0.000000 0.000000
								CHANNELS 3 Zrotation Yrotation Xrotation
								JOINT LeftHandIndex1
								{
									OFFSET 0.750000 0.000000 0.000000
									CHANNELS 3 Zrotation Yrotation Xrotation
									End Site
									{
										OFFSET 0.000000 0.000000 0.000000
									}
								}
							}
						}
					}
				}
				JOINT RightShoulder
				{
					OFFSET 0.000000 0.000000 0.000000
					CHANNELS 3 Zrotation Yrotation Xrotation
					JOINT RightArm
					{
						OFFSET -2.700000 1.550000 -0.730000
						CHANNELS 3 Zrotation Yrotation Xrotation
						JOINT RightForeArm
						{
							OFFSET -5.450000 0.000000 0.000000
							CHANNELS 3 Zrotation Yrotation Xrotation
							JOINT RightHand
							{
								OFFSET -3.450000 0.000000 0.000000
								CHANNELS 3 Zrotation Yrotation Xrotation
								JOINT RightHandIndex1
								{
									OFFSET -0.750000 0.000000 0.000000
									CHANNELS 3 Zrotation Yrotation Xrotation
									End Site
									{
										OFFSET 0.000000 0.000000 0.000000
									}
								}
							}
						}
					}
				}
			}
		}
	}
}
MOTION
Frames: 13
Frame Time: 0.016667
-0.953400 17.489710 -5.905340 -1.522296 -33.628115 -2.848369 -14.888418 13.250173 2.982407 4.910693 -1.660764 -18.967400 -2.398468 3.692461 7.827494 -0.241281 2.484382 3.607817 0.063810 0.048330 0.107880 18.433666 -11.015005 3.349044 -1.996167 -1.405552 -1.032933 5.341794 -3.944808 1.817952 -0.326765 -3.743251 3.135483 0.033280 0.030370 0.001230 -4.014088 -1.538985 -7.623014 10.493196 3.006498 7.524968 -2.195228 3.976305 7.079351 1.257280 -5.776676 -14.235872 -15.985125 13.697158 48.320427 -0.364170 11.458080 3.862230 -31.887403 -19.976230 7.254018 -37.553530 -8.751095 1.051302 1.373006 -7.958013 -0.323093 -3.770046 2.979207 0.115800 0.051010 0.023050 -0.005260 30.014366 25.633748 10.096615 46.127821 12.557647 -0.501599 1.486644 12.501503 -0.405109 2.618074 -1.284882 -0.072200 0.031270 -0.009620 -0.086760 
-0.948960 17.494290 -5.913330 -1.506678 -33.740929 -3.044375 -14.883392 13.226692 2.956250 4.923298 -1.631744 -18.810871 -2.434578 3.724224 7.994443 -0.248831 2.501459 3.601429 0.077280 0.065550 0.116520 18.444594 -11.027452 3.352024 -2.124520 -1.428568 -0.833923 5.390153 -3.956623 1.678577 -0.338238 -3.778706 3.121888 0.047440 0.029230 0.003320 -4.058901 -1.476503 -7.584794 10.624161 3.079832 7.503490 -2.277329 4.039667 7.846751 1.181899 -5.740867 -14.230439 -15.887477 13.628542 48.344506 -0.485030 11.411400 3.511180 -31.152347 -20.360763 7.312916 -36.956778 -9.863011 0.946131 2.265219 -9.934424 -0.460140 -3.761713 2.983878 0.113740 0.053510 0.024920 -0.002300 29.398359 25.952628 10.179722 45.897224 13.655503 -0.591911 0.966079 14.714954 -0.560081 2.583581 -1.300945 -0.071010 0.035750 -0.014330 -0.087550 
-0.943310 17.492340 -5.926500 -1.542976 -33.979860 -3.242469 -14.877268 13.169982 2.908298 5.042905 -1.584219 -18.615223 -2.551016 3.775603 8.159035 -0.260906 2.533135 3.589169 0.094800 0.091820 0.121970 18.467329 -11.043035 3.347030 -2.224089 -1.458692 -0.616921 5.458777 -3.967329 1.492152 -0.349799 -3.832898 3.101272 0.071220 0.034790 0.007990 -4.148131 -1.349737 -7.494155 10.860865 3.157857 7.278069 -2.505969 4.063300 9.005679 1.074727 -5.683250 -13.933879 -15.520466 13.545733 47.908871 -0.583600 11.389770 2.973590 -29.965478 -20.553684 7.310995 -36.675104 -11.469359 0.278631 5.500497 -14.335001 -1.064483 -3.746177 3.001602 0.102500 0.063900 0.020740 0.002570 28.328424 26.044572 10.102625 45.883841 15.547537 -0.883470 0.252142 19.272583 -0.863744 2.516124 -1.332838 -0.069250 0.041230 -0.017780 -0.085890 
-0.937040 17.493110 -5.941610 -1.417300 -34.411649 -3.563772 -14.866574 13.105046 2.854346 5.067029 -1.549361 -18.296396 -2.563921 3.800612 8.300929 -0.283218 2.566577 3.580140 0.111560 0.116880 0.130620 18.494653 -11.072179 3.337163 -2.550997 -1.457735 -0.417819 5.606751 -3.997891 1.318195 -0.361067 -3.905336 3.073746 0.099130 0.045700 0.016730 -4.265334 -1.184568 -7.382967 11.057263 3.180433 7.014126 -3.183140 4.057061 10.106310 1.020269 -5.498600 -13.302169 -14.738400 13.543899 47.412351 -0.959160 11.754180 2.366350 -29.539888 -20.428113 7.097994 -35.877573 -13.197904 -0.984305 11.377553 -19.651331 -2.499247 -3.739477 3.012996 0.089750 0.084010 0.013690 0.006580 27.814883 25.704955 9.851259 46.429222 17.897418 -1.414378 -1.625904 25.242875 -1.534770 2.426822 -1.370187 -0.072590 0.048410 -0.019070 -0.088420 
-0.933350 17.499550 -5.952210 -1.122852 -35.152804 -4.093147 -14.859823 13.046655 2.803849 5.232648 -1.475733 -17.748481 -2.923233 3.905555 8.395569 -0.302337 2.637993 3.555990 0.140570 0.158690 0.147020 18.516555 -11.091886 3.324360 -3.040602 -1.461564 -0.072804 5.849785 -4.051812 1.167591 -0.382734 -3.992234 3.038533 0.137630 0.052630 0.022720 -4.380609 -1.052572 -7.270162 11.212296 3.196417 6.832145 -3.872387 4.048173 11.226751 0.861856 -5.445317 -12.609401 -14.353278 13.888153 46.926681 -1.069250 12.190490 1.432770 -29.652996 -20.226555 6.734320 -34.899586 -15.236312 -2.339897 18.766937 -25.336928 -4.893415 -3.731014 3.000864 0.081090 0.098050 0.012490 0.012100 28.032981 25.256560 9.721923 46.969620 20.150909 -2.230375 -4.226594 32.343610 -2.641253 2.323079 -1.398960 -0.074790 0.061760 -0.025000 -0.091040 
-0.925140 17.507460 -5.961390 -0.735499 -36.308328 -4.797599 -14.850981 13.016663 2.775483 5.337287 -1.384309 -16.906117 -3.287977 3.998688 8.310875 -0.321530 2.721894 3.531530 0.162040 0.188720 0.163410 18.527924 -11.134114 3.304126 -3.634962 -1.433353 0.158863 5.881108 -4.114087 1.334938 -0.394882 -4.060860 3.010142 0.170030 0.061940 0.030480 -4.481798 -0.936526 -7.189402 11.299585 3.187483 6.855799 -4.701916 4.054955 12.480077 0.791406 -5.253715 -12.232034 -13.680841 14.224712 46.616651 -1.295770 12.848810 0.646800 -30.105902 -20.747499 6.539809 -32.875871 -17.359195 -3.444409 27.123136 -29.434543 -7.895266 -3.747522 2.962907 0.075600 0.116310 0.009800 0.014120 28.454647 25.424002 9.890748 47.284493 22.579250 -2.675143 -7.021770 38.979261 -4.036908 2.220163 -1.405770 -0.081520 0.074260 -0.026370 -0.098030 
-0.912380 17.521190 -5.971120 -0.604713 -36.946757 -5.407471 -14.835950 13.017811 2.759627 5.323420 -1.303596 -16.182461 -3.290975 4.000937 8.147319 -0.340680 2.762427 3.523326 0.180580 0.215590 0.178390 18.539519 -11.163913 3.304242 -3.985010 -1.437054 0.467118 5.900560 -4.162953 1.454494 -0.407286 -4.119912 2.985113 0.198740 0.065910 0.034170 -4.566761 -0.897438 -7.164908 11.544274 2.939395 7.197785 -5.298110 3.828705 13.790448 0.679921 -5.179186 -12.278495 -13.368549 14.499644 46.275468 -1.646530 13.371590 -0.001220 -30.583347 -22.044725 6.604343 -30.083257 -19.340871 -4.086307 34.374709 -30.421204 -10.256255 -3.782528 2.934858 0.069840 0.129790 0.008040 0.015910 29.060663 26.363059 10.415906 46.695651 25.069540 -3.048753 -11.026927 44.528924 -6.067119 2.124687 -1.390505 -0.087440 0.083850 -0.030180 -0.104270 
-0.901820 17.529100 -5.976490 -0.612255 -37.268704 -5.874757 -14.826092 13.021217 2.741834 5.330735 -1.217137 -15.525656 -3.149362 3.964859 7.901204 -0.361479 2.790713 3.519304 0.195370 0.237580 0.192790 18.548052 -11.195457 3.295659 -4.179063 -1.457645 0.759358 5.908499 -4.234220 1.788985 -0.415423 -4.174929 2.961404 0.224330 0.070890 0.039070 -4.624154 -0.860275 -7.138152 11.721339 2.762273 7.496231 -5.588679 3.610709 15.131124 0.549965 -5.063709 -12.324604 -12.895823 14.589986 45.673757 -2.111680 13.818410 -0.699680 -30.421519 -23.335730 6.622733 -27.574010 -21.266515 -4.370279 39.997833 -30.875211 -12.107652 -3.821480 2.909062 0.061510 0.145600 0.003950 0.014950 29.120517 27.277396 10.878921 46.166989 27.506007 -3.195083 -16.375945 49.528543 -8.977299 2.027641 -1.337407 -0.092970 0.092010 -0.031410 -0.110950 
-0.891890 17.541280 -5.978370 -0.702571 -37.242769 -6.262561 -14.819191 13.016680 2.723424 5.289306 -1.143403 -14.991063 -3.043194 3.939417 7.730107 -0.380683 2.815141 3.516446 0.214250 0.261930 0.207600 18.556912 -11.217744 3.292649 -4.324284 -1.491008 1.132744 5.816312 -4.270502 1.934407 -0.426697 -4.231407 2.938331 0.250730 0.074120 0.042620 -4.667031 -0.824739 -7.117421 11.879268 2.645339 7.755321 -5.530481 3.410828 16.384126 0.360595 -5.095727 -12.372880 -12.812050 14.533938 45.195901 -2.551120 13.869380 -1.323240 -30.131583 -24.467208 6.641062 -25.793621 -22.986074 -4.471939 44.660539 -30.672116 -13.568775 -3.852427 2.892453 0.053640 0.157290 0.000170 0.016880 29.218845 28.176718 11.254785 45.295898 29.900285 -3.035913 -22.948930 52.312145 -12.416948 1.946902 -1.253511 -0.096470 0.100670 -0.035690 -0.115140 
-0.884900 17.548250 -5.983450 -0.639571 -37.104327 -6.675698 -14.830309 13.016574 2.705668 5.215622 -1.081310 -14.630212 -2.958551 3.926771 7.640245 -0.398050 2.843625 3.512498 0.226490 0.279650 0.210260 18.551073 -11.220525 3.288094 -4.392514 -1.521187 1.498143 5.688064 -4.285197 1.994331 -0.433234 -4.285070 2.916576 0.274100 0.088590 0.049080 -4.644865 -0.827870 -7.102537 11.621493 2.673532 7.948983 -5.040691 3.306998 17.693830 0.090835 -5.141931 -12.442538 -12.745427 14.402848 44.667485 -2.749510 13.675090 -1.721870 -29.510836 -25.483868 6.666153 -24.830066 -24.641098 -4.424138 49.290362 -30.390275 -15.102798 -3.882935 2.881578 0.040130 0.173840 -0.009930 0.020720 29.215657 29.058910 11.625074 44.524368 32.285888 -2.673684 -31.163222 54.366477 -16.823353 1.862423 -1.128893 -0.099780 0.110870 -0.033280 -0.113340 
-0.880470 17.557700 -5.990580 -0.644835 -37.175747 -7.004210 -14.831554 13.021732 2.688826 5.237567 -1.012853 -14.233079 -2.872476 3.915210 7.532556 -0.415639 2.879372 3.507216 0.239760 0.298520 0.210350 18.552674 -11.227691 3.282997 -4.440209 -1.538918 1.772472 5.633139 -4.309465 2.148975 -0.435463 -4.337124 2.895960 0.300160 0.104850 0.056210 -4.659688 -0.832894 -7.082971 11.575583 2.597655 8.189260 -4.719966 3.107745 18.867998 -0.247684 -5.355085 -12.465898 -13.022528 14.386278 43.791192 -3.019620 13.471750 -2.065500 -29.315801 -26.475987 6.563882 -23.423599 -26.167275 -4.458658 53.250756 -29.575401 -16.148453 -3.920879 2.884534 0.022820 0.193340 -0.023690 0.026710 29.729071 29.903904 12.106401 43.790668 34.612358 -1.922695 -39.335046 56.179449 -21.504395 1.775392 -0.979105 -0.103290 0.118850 -0.031730 -0.110710 
-0.874740 17.564070 -5.997920 -0.778583 -37.346587 -7.286374 -14.822082 13.008724 2.672004 5.312985 -0.946213 -13.826888 -2.833059 3.905848 7.393809 -0.434195 2.912922 3.500846 0.255000 0.320290 0.214470 18.564425 -11.242306 3.294946 -4.420873 -1.566360 2.070018 5.728472 -4.342949 2.152722 -0.444807 -4.394379 2.872774 0.326160 0.117930 0.063470 -4.721486 -0.783330 -7.068815 11.785582 2.454699 8.469861 -4.761345 2.877060 20.078546 -0.397509 -5.467310 -12.539872 -12.962838 14.554957 42.995633 -3.221780 13.552930 -2.532120 -29.152931 -27.472924 6.544093 -21.964904 -27.132015 -4.728307 57.759286 -29.273633 -17.579154 -3.957141 2.881871 0.010870 0.210490 -0.032720 0.031430 29.894650 30.722793 12.526758 43.370096 37.206839 -0.482265 -48.234605 57.457839 -26.803338 1.683846 -0.787632 -0.106860 0.127130 -0.031060 -0.110530 
-0.869930 17.565920 -6.005550 -0.622835 -37.522061 -7.688669 -14.822426 13.001367 2.670248 5.225009 -0.907320 -13.446511 -2.850523 3.903307 7.284944 -0.449498 2.937926 3.496041 0.276110 0.351140 0.225480 18.562399 -11.261413 3.292682 -4.657407 -1.538980 2.197516 5.784710 -4.368155 2.247098 -0.450919 -4.433573 2.854427 0.355700 0.124770 0.069160 -4.735773 -0.739329 -7.062441 11.587039 2.414964 8.780684 -4.960794 2.838399 21.193498 -0.429237 -5.462067 -12.566840 -12.615312 14.644737 42.130296 -3.441970 13.682930 -3.220630 -28.849183 -28.335896 6.409501 -20.584533 -27.995849 -5.030000 62.708575 -29.011375 -19.207460 -3.987239 2.875801 -0.000090 0.223430 -0.035680 0.036940 29.685899 31.442254 12.875548 43.063943 39.691273 1.439398 -57.146587 57.740110 -32.255231 1.612111 -0.603480 -0.107800 0.136400 -0.035980 -0.110730 
